<svg xmlns="http://www.w3.org/2000/svg" viewBox="0 0 1200 675">
  <defs>
    <linearGradient id="bgGrowth" x1="0%" y1="0%" x2="100%" y2="100%">
      <stop offset="0%" style="stop-color:#0a0a1a"/>
      <stop offset="100%" style="stop-color:#0a1a0f"/>
    </linearGradient>
    <linearGradient id="accentGrowth" x1="0%" y1="0%" x2="100%" y2="0%">
      <stop offset="0%" style="stop-color:#22c55e"/>
      <stop offset="100%" style="stop-color:#10b981"/>
    </linearGradient>
  </defs>
  <rect width="1200" height="675" fill="url(#bgGrowth)"/>
  <!-- Grid dots -->
  <g opacity="0.05">
    <circle cx="50" cy="50" r="1" fill="#22c55e"/><circle cx="150" cy="50" r="1" fill="#22c55e"/>
    <circle cx="250" cy="50" r="1" fill="#22c55e"/><circle cx="350" cy="50" r="1" fill="#22c55e"/>
    <circle cx="450" cy="50" r="1" fill="#22c55e"/><circle cx="550" cy="50" r="1" fill="#22c55e"/>
    <circle cx="650" cy="50" r="1" fill="#22c55e"/><circle cx="750" cy="50" r="1" fill="#22c55e"/>
    <circle cx="850" cy="50" r="1" fill="#22c55e"/><circle cx="950" cy="50" r="1" fill="#22c55e"/>
    <circle cx="50" cy="150" r="1" fill="#22c55e"/><circle cx="150" cy="150" r="1" fill="#22c55e"/>
    <circle cx="250" cy="150" r="1" fill="#22c55e"/><circle cx="350" cy="150" r="1" fill="#22c55e"/>
    <circle cx="450" cy="150" r="1" fill="#22c55e"/><circle cx="550" cy="150" r="1" fill="#22c55e"/>
    <circle cx="650" cy="150" r="1" fill="#22c55e"/><circle cx="750" cy="150" r="1" fill="#22c55e"/>
    <circle cx="850" cy="150" r="1" fill="#22c55e"/><circle cx="950" cy="150" r="1" fill="#22c55e"/>
  </g>
  <!-- Pipeline view -->
  <rect x="20" y="20" width="580" height="635" rx="8" fill="#0d1117" opacity="0.8" stroke="#1a2332" stroke-width="1"/>
  <text x="310" y="50" fill="#22c55e" font-size="13" font-family="sans-serif" font-weight="bold" text-anchor="middle">🔷 Pipeline de Captação</text>
  <!-- Pipeline stages -->
  <rect x="35" y="65" width="550" height="55" rx="6" fill="#111827" stroke="#1a2332" stroke-width="0.5"/>
  <circle cx="55" cy="85" r="12" fill="#22c55e" opacity="0.2"/>
  <text x="55" y="89" fill="#22c55e" font-size="11" font-family="sans-serif" font-weight="bold" text-anchor="middle">1</text>
  <text x="80" y="83" fill="#e6edf3" font-size="12" font-family="sans-serif">Lead Qualificado</text>
  <text x="80" y="100" fill="#22c55e" font-size="11" font-family="monospace">3 novos</text>
  <rect x="35" y="130" width="550" height="55" rx="6" fill="#111827" stroke="#22c55e" stroke-width="0.5" stroke-opacity="0.3"/>
  <circle cx="55" cy="150" r="12" fill="#22c55e" opacity="0.3"/>
  <text x="55" y="154" fill="#22c55e" font-size="11" font-family="sans-serif" font-weight="bold" text-anchor="middle">2</text>
  <text x="80" y="148" fill="#e6edf3" font-size="12" font-family="sans-serif">Reunião Agendada</text>
  <text x="80" y="165" fill="#22c55e" font-size="11" font-family="monospace">2 agendadas</text>
  <rect x="35" y="195" width="550" height="55" rx="6" fill="#111827" stroke="#22c55e" stroke-width="0.5" stroke-opacity="0.4"/>
  <circle cx="55" cy="215" r="12" fill="#22c55e" opacity="0.4"/>
  <text x="55" y="219" fill="#22c55e" font-size="11" font-family="sans-serif" font-weight="bold" text-anchor="middle">3</text>
  <text x="80" y="213" fill="#e6edf3" font-size="12" font-family="sans-serif">Proposta Enviada</text>
  <text x="80" y="230" fill="#22c55e" font-size="11" font-family="monospace">R$ 245K em proposta</text>
  <!-- Metrics cards -->
  <rect x="35" y="270" width="265" height="100" rx="8" fill="#111827" stroke="#1a2332" stroke-width="0.5"/>
  <text x="55" y="295" fill="#8b949e" font-size="11" font-family="sans-serif">Taxa de Conversão</text>
  <text x="55" y="335" fill="#22c55e" font-size="28" font-family="monospace" font-weight="bold">34%</text>
  <rect x="320" y="270" width="265" height="100" rx="8" fill="#111827" stroke="#1a2332" stroke-width="0.5"/>
  <text x="340" y="295" fill="#8b949e" font-size="11" font-family="sans-serif">Ticket Médio</text>
  <text x="340" y="335" fill="#10b981" font-size="28" font-family="monospace" font-weight="bold">R$ 18,5K</text>
  <rect x="35" y="385" width="265" height="100" rx="8" fill="#111827" stroke="#1a2332" stroke-width="0.5"/>
  <text x="55" y="410" fill="#8b949e" font-size="11" font-family="sans-serif">Ciclo Médio</text>
  <text x="55" y="450" fill="#f59e0b" font-size="28" font-family="monospace" font-weight="bold">12 dias</text>
  <rect x="320" y="385" width="265" height="100" rx="8" fill="#111827" stroke="#1a2332" stroke-width="0.5"/>
  <text x="340" y="410" fill="#8b949e" font-size="11" font-family="sans-serif">Leads no Funil</text>
  <text x="340" y="450" fill="#22c55e" font-size="28" font-family="monospace" font-weight="bold">8 ativos</text>
  <!-- Chart panel - right -->
  <rect x="615" y="20" width="565" height="310" rx="8" fill="#0d1117" opacity="0.8" stroke="#1a2332" stroke-width="1"/>
  <text x="635" y="50" fill="#22c55e" font-size="13" font-family="sans-serif" font-weight="bold">📈 Captação Mensal</text>
  <!-- Area chart -->
  <path d="M640,300 660,290 680,280 700,260 720,270 740,240 760,250 780,220 800,230 820,200 840,210 860,180 880,190 900,160 920,170 940,140 960,150 980,120 1000,130 1020,100 1040,110 1060,80 1080,90 1100,60 1120,70 1140,50 1160,55 L1160,300 Z" fill="#22c55e" opacity="0.1"/>
  <polyline points="640,300 660,290 680,280 700,260 720,270 740,240 760,250 780,220 800,230 820,200 840,210 860,180 880,190 900,160 920,170 940,140 960,150 980,120 1000,130 1020,100 1040,110 1060,80 1080,90 1100,60 1120,70 1140,50 1160,55" fill="none" stroke="#22c55e" stroke-width="2"/>
  <!-- Right panel - ranking -->
  <rect x="615" y="345" width="565" height="310" rx="8" fill="#0d1117" opacity="0.8" stroke="#1a2332" stroke-width="1"/>
  <text x="635" y="375" fill="#22c55e" font-size="13" font-family="sans-serif" font-weight="bold">🏆 Ranking Consultores</text>
  <rect x="635" y="395" width="525" height="30" rx="4" fill="#111827"/>
  <text x="650" y="415" fill="#f59e0b" font-size="11" font-family="monospace" font-weight="bold">1º</text>
  <text x="675" y="415" fill="#e6edf3" font-size="11" font-family="monospace">Carlos Andrade</text>
  <text x="1125" y="415" fill="#22c55e" font-size="11" font-family="monospace" text-anchor="end">R$ 145K</text>
  <rect x="635" y="430" width="525" height="30" rx="4" fill="#111827"/>
  <text x="650" y="450" fill="#94a3b8" font-size="11" font-family="monospace" font-weight="bold">2º</text>
  <text x="675" y="450" fill="#e6edf3" font-size="11" font-family="monospace">Marina Santos</text>
  <text x="1125" y="450" fill="#22c55e" font-size="11" font-family="monospace" text-anchor="end">R$ 98K</text>
  <rect x="635" y="465" width="525" height="30" rx="4" fill="#111827"/>
  <text x="650" y="485" fill="#94a3b8" font-size="11" font-family="monospace" font-weight="bold">3º</text>
  <text x="675" y="485" fill="#e6edf3" font-size="11" font-family="monospace">Rafael Oliveira</text>
  <text x="1125" y="485" fill="#22c55e" font-size="11" font-family="monospace" text-anchor="end">R$ 72K</text>
  <!-- Title overlay -->
  <text x="600" y="530" fill="#22c55e" font-size="22" font-family="sans-serif" font-weight="bold" text-anchor="middle">Growth Advisor</text>
  <text x="600" y="555" fill="#8b949e" font-size="14" font-family="sans-serif" text-anchor="middle">Plataforma para planejadores financeiros</text>
  <!-- Tags -->
  <rect x="430" y="580" width="80" height="24" rx="6" fill="#22c55e" opacity="0.15"/>
  <text x="470" y="596" fill="#22c55e" font-size="11" font-family="monospace" text-anchor="middle">React 18</text>
  <rect x="520" y="580" width="75" height="24" rx="6" fill="#22c55e" opacity="0.15"/>
  <text x="557" y="596" fill="#22c55e" font-size="11" font-family="monospace" text-anchor="middle">Firebase</text>
  <rect x="605" y="580" width="75" height="24" rx="6" fill="#22c55e" opacity="0.15"/>
  <text x="642" y="596" fill="#22c55e" font-size="11" font-family="monospace" text-anchor="middle">Tailwind</text>
  <rect x="690" y="580" width="65" height="24" rx="6" fill="#22c55e" opacity="0.15"/>
  <text x="722" y="596" fill="#22c55e" font-size="11" font-family="monospace" text-anchor="middle">Vite</text>
</svg>