<svg xmlns="http://www.w3.org/2000/svg" viewBox="0 0 1200 675">
  <defs>
    <linearGradient id="bgMda" x1="0%" y1="0%" x2="100%" y2="100%">
      <stop offset="0%" style="stop-color:#0a0a1a"/>
      <stop offset="100%" style="stop-color:#0d0a1a"/>
    </linearGradient>
    <linearGradient id="accentMda" x1="0%" y1="0%" x2="100%" y2="0%">
      <stop offset="0%" style="stop-color:#8b5cf6"/>
      <stop offset="100%" style="stop-color:#a855f7"/>
    </linearGradient>
  </defs>
  <rect width="1200" height="675" fill="url(#bgMda)"/>
  <!-- Grid dots -->
  <g opacity="0.05">
    <circle cx="50" cy="50" r="1" fill="#8b5cf6"/><circle cx="150" cy="50" r="1" fill="#8b5cf6"/>
    <circle cx="250" cy="50" r="1" fill="#8b5cf6"/><circle cx="350" cy="50" r="1" fill="#8b5cf6"/>
    <circle cx="450" cy="50" r="1" fill="#8b5cf6"/><circle cx="550" cy="50" r="1" fill="#8b5cf6"/>
    <circle cx="650" cy="50" r="1" fill="#8b5cf6"/><circle cx="750" cy="50" r="1" fill="#8b5cf6"/>
    <circle cx="850" cy="50" r="1" fill="#8b5cf6"/><circle cx="950" cy="50" r="1" fill="#8b5cf6"/>
    <circle cx="50" cy="150" r="1" fill="#8b5cf6"/><circle cx="150" cy="150" r="1" fill="#8b5cf6"/>
    <circle cx="250" cy="150" r="1" fill="#8b5cf6"/><circle cx="350" cy="150" r="1" fill="#8b5cf6"/>
    <circle cx="450" cy="150" r="1" fill="#8b5cf6"/><circle cx="550" cy="150" r="1" fill="#8b5cf6"/>
    <circle cx="650" cy="150" r="1" fill="#8b5cf6"/><circle cx="750" cy="150" r="1" fill="#8b5cf6"/>
    <circle cx="850" cy="150" r="1" fill="#8b5cf6"/><circle cx="950" cy="150" r="1" fill="#8b5cf6"/>
  </g>
  <!-- Kanban columns -->
  <!-- To Do -->
  <rect x="20" y="20" width="280" height="635" rx="8" fill="#0d1117" opacity="0.8" stroke="#1a2332" stroke-width="1"/>
  <text x="160" y="50" fill="#8b949e" font-size="13" font-family="sans-serif" font-weight="bold" text-anchor="middle">📋 A Fazer</text>
  <rect x="35" y="65" width="250" height="90" rx="6" fill="#111827" stroke="#1a2332" stroke-width="0.5"/>
  <rect x="50" y="80" width="100" height="8" rx="2" fill="#1a2332"/>
  <rect x="50" y="100" width="200" height="6" rx="2" fill="#1a2332" opacity="0.5"/>
  <rect x="50" y="115" width="160" height="6" rx="2" fill="#1a2332" opacity="0.5"/>
  <rect x="35" y="165" width="250" height="90" rx="6" fill="#111827" stroke="#1a2332" stroke-width="0.5"/>
  <rect x="50" y="180" width="120" height="8" rx="2" fill="#1a2332"/>
  <rect x="50" y="200" width="180" height="6" rx="2" fill="#1a2332" opacity="0.5"/>
  <rect x="35" y="265" width="250" height="90" rx="6" fill="#111827" stroke="#1a2332" stroke-width="0.5"/>
  <rect x="50" y="280" width="90" height="8" rx="2" fill="#1a2332"/>
  <rect x="50" y="300" width="170" height="6" rx="2" fill="#1a2332" opacity="0.5"/>
  <!-- Doing -->
  <rect x="315" y="20" width="280" height="635" rx="8" fill="#0d1117" opacity="0.8" stroke="#8b5cf6" stroke-width="1" stroke-opacity="0.3"/>
  <text x="455" y="50" fill="#8b5cf6" font-size="13" font-family="sans-serif" font-weight="bold" text-anchor="middle">⚡ Em Andamento</text>
  <rect x="330" y="65" width="250" height="110" rx="6" fill="#111827" stroke="#8b5cf6" stroke-width="0.5" stroke-opacity="0.3"/>
  <rect x="345" y="80" width="80" height="8" rx="2" fill="#1a2332"/>
  <rect x="345" y="100" width="200" height="6" rx="2" fill="#1a2332" opacity="0.5"/>
  <rect x="345" y="115" width="160" height="6" rx="2" fill="#1a2332" opacity="0.5"/>
  <rect x="345" y="130" width="80" height="6" rx="2" fill="#8b5cf6" opacity="0.3"/>
  <rect x="330" y="185" width="250" height="110" rx="6" fill="#111827" stroke="#8b5cf6" stroke-width="0.5" stroke-opacity="0.3"/>
  <rect x="345" y="200" width="70" height="8" rx="2" fill="#1a2332"/>
  <rect x="345" y="220" width="190" height="6" rx="2" fill="#1a2332" opacity="0.5"/>
  <rect x="345" y="235" width="150" height="6" rx="2" fill="#1a2332" opacity="0.5"/>
  <rect x="345" y="250" width="100" height="6" rx="2" fill="#8b5cf6" opacity="0.3"/>
  <!-- Done -->
  <rect x="610" y="20" width="280" height="635" rx="8" fill="#0d1117" opacity="0.8" stroke="#1a2332" stroke-width="1"/>
  <text x="750" y="50" fill="#8b949e" font-size="13" font-family="sans-serif" font-weight="bold" text-anchor="middle">✅ Concluído</text>
  <rect x="625" y="65" width="250" height="90" rx="6" fill="#111827" stroke="#1a2332" stroke-width="0.5"/>
  <rect x="640" y="80" width="90" height="8" rx="2" fill="#1a2332"/>
  <rect x="640" y="100" width="190" height="6" rx="2" fill="#1a2332" opacity="0.5"/>
  <rect x="625" y="165" width="250" height="90" rx="6" fill="#111827" stroke="#22c55e" stroke-width="0.5" stroke-opacity="0.3"/>
  <rect x="640" y="180" width="110" height="8" rx="2" fill="#1a2332"/>
  <rect x="640" y="200" width="180" height="6" rx="2" fill="#22c55e" opacity="0.3"/>
  <!-- Calendar - right column -->
  <rect x="905" y="20" width="275" height="310" rx="8" fill="#0d1117" opacity="0.8" stroke="#1a2332" stroke-width="1"/>
  <text x="1042" y="50" fill="#8b5cf6" font-size="13" font-family="sans-serif" font-weight="bold" text-anchor="middle">📅 Agenda</text>
  <rect x="925" y="70" width="235" height="20" rx="3" fill="#111827"/>
  <text x="1042" y="84" fill="#8b949e" font-size="10" font-family="monospace" text-anchor="middle">Seg  Ter  Qua  Qui  Sex  Sab  Dom</text>
  <rect x="925" y="100" width="30" height="24" rx="2" fill="#1a2332"/>
  <rect x="960" y="100" width="30" height="24" rx="2" fill="#1a2332"/>
  <rect x="995" y="100" width="30" height="24" rx="2" fill="#8b5cf6" opacity="0.3"/>
  <rect x="1030" y="100" width="30" height="24" rx="2" fill="#1a2332"/>
  <rect x="1065" y="100" width="30" height="24" rx="2" fill="#1a2332"/>
  <rect x="1100" y="100" width="30" height="24" rx="2" fill="#1a2332"/>
  <rect x="1130" y="100" width="30" height="24" rx="2" fill="#1a2332"/>
  <rect x="925" y="130" width="30" height="24" rx="2" fill="#1a2332"/>
  <rect x="960" y="130" width="30" height="24" rx="2" fill="#8b5cf6" opacity="0.2"/>
  <rect x="995" y="130" width="30" height="24" rx="2" fill="#1a2332"/>
  <rect x="1030" y="130" width="30" height="24" rx="2" fill="#1a2332"/>
  <rect x="1065" y="130" width="30" height="24" rx="2" fill="#1a2332"/>
  <rect x="1100" y="130" width="30" height="24" rx="2" fill="#1a2332"/>
  <rect x="1130" y="130" width="30" height="24" rx="2" fill="#1a2332"/>
  <!-- Title overlay -->
  <rect x="380" y="310" width="440" height="80" rx="12" fill="#0d1117" opacity="0.9" stroke="#8b5cf6" stroke-width="1" stroke-opacity="0.3"/>
  <text x="600" y="345" fill="#8b5cf6" font-size="22" font-family="sans-serif" font-weight="bold" text-anchor="middle">MDA Soluções</text>
  <text x="600" y="373" fill="#8b949e" font-size="14" font-family="sans-serif" text-anchor="middle">Gestão de manutenção · Kanban · OS · Agenda</text>
  <!-- Tags -->
  <rect x="420" y="410" width="75" height="24" rx="6" fill="#8b5cf6" opacity="0.15"/>
  <text x="457" y="426" fill="#8b5cf6" font-size="11" font-family="monospace" text-anchor="middle">React 19</text>
  <rect x="505" y="410" width="75" height="24" rx="6" fill="#8b5cf6" opacity="0.15"/>
  <text x="542" y="426" fill="#8b5cf6" font-size="11" font-family="monospace" text-anchor="middle">Firebase</text>
  <rect x="590" y="410" width="80" height="24" rx="6" fill="#8b5cf6" opacity="0.15"/>
  <text x="630" y="426" fill="#8b5cf6" font-size="11" font-family="monospace" text-anchor="middle">Tailwind</text>
  <rect x="680" y="410" width="75" height="24" rx="6" fill="#8b5cf6" opacity="0.15"/>
  <text x="717" y="426" fill="#8b5cf6" font-size="11" font-family="monospace" text-anchor="middle">DnD Kit</text>
</svg>