<svg xmlns="http://www.w3.org/2000/svg" viewBox="0 0 1200 675">
  <defs>
    <linearGradient id="bgRmx" x1="0%" y1="0%" x2="100%" y2="100%">
      <stop offset="0%" style="stop-color:#0a0a1a"/>
      <stop offset="100%" style="stop-color:#0d1a1a"/>
    </linearGradient>
    <linearGradient id="accentRmx" x1="0%" y1="0%" x2="100%" y2="0%">
      <stop offset="0%" style="stop-color:#14b8a6"/>
      <stop offset="100%" style="stop-color:#06b6d4"/>
    </linearGradient>
  </defs>
  <rect width="1200" height="675" fill="url(#bgRmx)"/>
  <!-- Grid dots background -->
  <g opacity="0.05">
    <circle cx="50" cy="50" r="1" fill="#14b8a6"/><circle cx="150" cy="50" r="1" fill="#14b8a6"/>
    <circle cx="250" cy="50" r="1" fill="#14b8a6"/><circle cx="350" cy="50" r="1" fill="#14b8a6"/>
    <circle cx="450" cy="50" r="1" fill="#14b8a6"/><circle cx="550" cy="50" r="1" fill="#14b8a6"/>
    <circle cx="650" cy="50" r="1" fill="#14b8a6"/><circle cx="750" cy="50" r="1" fill="#14b8a6"/>
    <circle cx="850" cy="50" r="1" fill="#14b8a6"/><circle cx="950" cy="50" r="1" fill="#14b8a6"/>
    <circle cx="1050" cy="50" r="1" fill="#14b8a6"/><circle cx="50" cy="150" r="1" fill="#14b8a6"/>
    <circle cx="150" cy="150" r="1" fill="#14b8a6"/><circle cx="250" cy="150" r="1" fill="#14b8a6"/>
    <circle cx="350" cy="150" r="1" fill="#14b8a6"/><circle cx="450" cy="150" r="1" fill="#14b8a6"/>
    <circle cx="550" cy="150" r="1" fill="#14b8a6"/><circle cx="650" cy="150" r="1" fill="#14b8a6"/>
    <circle cx="750" cy="150" r="1" fill="#14b8a6"/><circle cx="850" cy="150" r="1" fill="#14b8a6"/>
    <circle cx="950" cy="150" r="1" fill="#14b8a6"/><circle cx="50" cy="250" r="1" fill="#14b8a6"/>
    <circle cx="150" cy="250" r="1" fill="#14b8a6"/><circle cx="250" cy="250" r="1" fill="#14b8a6"/>
    <circle cx="350" cy="250" r="1" fill="#14b8a6"/><circle cx="450" cy="250" r="1" fill="#14b8a6"/>
    <circle cx="550" cy="250" r="1" fill="#14b8a6"/><circle cx="650" cy="250" r="1" fill="#14b8a6"/>
    <circle cx="750" cy="250" r="1" fill="#14b8a6"/><circle cx="850" cy="250" r="1" fill="#14b8a6"/>
  </g>
  <!-- Left sidebar mock -->
  <rect x="20" y="20" width="200" height="635" rx="8" fill="#0d1117" opacity="0.8" stroke="#1a2332" stroke-width="1"/>
  <rect x="35" y="35" width="170" height="24" rx="4" fill="url(#accentRmx)" opacity="0.6"/>
  <rect x="35" y="75" width="120" height="12" rx="3" fill="#1a2332"/>
  <rect x="35" y="100" width="100" height="12" rx="3" fill="#14b8a6" opacity="0.4"/>
  <rect x="35" y="125" width="130" height="12" rx="3" fill="#1a2332"/>
  <rect x="35" y="150" width="110" height="12" rx="3" fill="#1a2332"/>
  <rect x="35" y="175" width="95" height="12" rx="3" fill="#1a2332"/>
  <!-- Main content area -->
  <rect x="240" y="20" width="940" height="40" rx="8" fill="#0d1117" opacity="0.8" stroke="#1a2332" stroke-width="1"/>
  <rect x="260" y="32" width="80" height="16" rx="3" fill="url(#accentRmx)" opacity="0.5"/>
  <rect x="355" y="32" width="60" height="16" rx="3" fill="#1a2332"/>
  <rect x="430" y="32" width="60" height="16" rx="3" fill="#1a2332"/>
  <!-- Stats cards -->
  <rect x="240" y="75" width="220" height="100" rx="8" fill="#0d1117" stroke="#1a2332" stroke-width="1"/>
  <rect x="260" y="95" width="60" height="8" rx="2" fill="#1a2332"/>
  <text x="260" y="140" fill="#14b8a6" font-size="28" font-family="monospace" font-weight="bold">258</text>
  <rect x="480" y="75" width="220" height="100" rx="8" fill="#0d1117" stroke="#1a2332" stroke-width="1"/>
  <rect x="500" y="95" width="60" height="8" rx="2" fill="#1a2332"/>
  <text x="500" y="140" fill="#f59e0b" font-size="28" font-family="monospace" font-weight="bold">R$ 89K</text>
  <rect x="720" y="75" width="220" height="100" rx="8" fill="#0d1117" stroke="#1a2332" stroke-width="1"/>
  <rect x="740" y="95" width="60" height="8" rx="2" fill="#1a2332"/>
  <text x="740" y="140" fill="#8b5cf6" font-size="28" font-family="monospace" font-weight="bold">47</text>
  <!-- Chart area -->
  <rect x="240" y="190" width="460" height="220" rx="8" fill="#0d1117" stroke="#1a2332" stroke-width="1"/>
  <rect x="260" y="210" width="80" height="8" rx="2" fill="#1a2332"/>
  <!-- Chart line -->
  <polyline points="270,380 310,360 350,370 390,340 430,350 470,310 510,330 550,290 590,300 630,270 670,280" fill="none" stroke="#14b8a6" stroke-width="2" opacity="0.8"/>
  <polyline points="270,375 310,355 350,365 390,335 430,345 470,305 510,325 550,285 590,295 630,265 670,275" fill="none" stroke="#06b6d4" stroke-width="1.5" opacity="0.4"/>
  <!-- Table mock -->
  <rect x="720" y="190" width="460" height="220" rx="8" fill="#0d1117" stroke="#1a2332" stroke-width="1"/>
  <rect x="740" y="210" width="120" height="8" rx="2" fill="#1a2332"/>
  <rect x="740" y="235" width="400" height="10" rx="2" fill="#1a2332" opacity="0.5"/>
  <rect x="740" y="258" width="380" height="10" rx="2" fill="#1a2332" opacity="0.5"/>
  <rect x="740" y="281" width="390" height="10" rx="2" fill="#14b8a6" opacity="0.2"/>
  <rect x="740" y="304" width="370" height="10" rx="2" fill="#1a2332" opacity="0.5"/>
  <rect x="740" y="327" width="400" height="10" rx="2" fill="#1a2332" opacity="0.5"/>
  <!-- Project title overlay -->
  <rect x="380" y="430" width="440" height="80" rx="12" fill="#0d1117" opacity="0.9" stroke="#14b8a6" stroke-width="1" stroke-opacity="0.3"/>
  <text x="600" y="465" fill="#14b8a6" font-size="22" font-family="sans-serif" font-weight="bold" text-anchor="middle">RMX CRM</text>
  <text x="600" y="493" fill="#8b949e" font-size="14" font-family="sans-serif" text-anchor="middle">CRM multi-tenant · Gestão de campo · 30+ telas</text>
  <!-- Bottom tags -->
  <rect x="420" y="530" width="80" height="24" rx="6" fill="#14b8a6" opacity="0.15"/>
  <text x="460" y="546" fill="#14b8a6" font-size="11" font-family="monospace" text-anchor="middle">React 19</text>
  <rect x="510" y="530" width="70" height="24" rx="6" fill="#14b8a6" opacity="0.15"/>
  <text x="545" y="546" fill="#14b8a6" font-size="11" font-family="monospace" text-anchor="middle">Firebase</text>
  <rect x="590" y="530" width="75" height="24" rx="6" fill="#14b8a6" opacity="0.15"/>
  <text x="627" y="546" fill="#14b8a6" font-size="11" font-family="monospace" text-anchor="middle">Tailwind</text>
  <rect x="675" y="530" width="80" height="24" rx="6" fill="#14b8a6" opacity="0.15"/>
  <text x="715" y="546" fill="#14b8a6" font-size="11" font-family="monospace" text-anchor="middle">Recharts</text>
</svg>